<?xml version="1.0" encoding="utf-8"?>
<!-- Generator: Adobe Illustrator 19.1.0, SVG Export Plug-In . SVG Version: 6.00 Build 0)  -->
<svg version="1.1" id="Calque_1" xmlns="http://www.w3.org/2000/svg" xmlns:xlink="http://www.w3.org/1999/xlink" x="0px" y="0px"
	 viewBox="0 0 318 229" style="enable-background:new 0 0 318 229;" xml:space="preserve">
<style type="text/css">
	.st0{fill:#515455;}
</style>
<g>
	<path d="M214.8,147.9c-1.2,0.4-2.9,0.8-4.5,0.8c-3.3,0-6.1-1.8-6.1-7.5v-17.4H217v-13.7h-12.7V96.9h-16.5l0,13.3h-30.6v42.8
		c0,8.7-2.8,8.8-4.7,8.8c-1.9,0-4-0.8-4-8.8v-20.2c0-16.7-8-23.9-21.2-23.9c-8,0-15.3,2.4-22.4,6.7l6.1,11.4
		c5.3-2.8,9.2-4.3,12.8-4.3c4.5,0,6.7,1.6,7.1,5.3c-12.7,1.3-20.7,4.3-24.6,9.1c-0.4,0.1-3,4.1-6.8,7.2c-4,3.3-5.1,2.5-6.3,1.9
		c-1.1-0.6-2.4-1.6-2.4-5.1v-24.6H73.3v24c0,11.4,5.2,21.9,17,22.3c5.9,0.2,8.2-0.2,12.1-2.5c2-1.1,3.5-2,4.7-2.9
		c2.6,2.9,6.5,4.8,11.4,4.8c5.5,0,10-2.5,14.1-6.1h0.1c1.4,18.5,15.3,20.6,21.4,20.6c16.7,0,21-14.4,20.6-24.7v-28.3h12.1v17.8
		c0,12.4,5.5,20.8,18.8,20.8c5.6,0,9.4-1,12-1.8L214.8,147.9z M130.9,145.4c-1.8,2-3.5,3.5-6.3,3.5c-3.1,0-4.7-1.3-4.7-3.7
		c0-2.9,2.6-5.5,11-6.7V145.4z"/>
	<path d="M165.8,86.3c-5.7,0-9.8,3.7-9.8,8.8c0,5.1,4.1,8.8,9.8,8.8c5.7,0,9.8-3.7,9.8-8.8C175.6,89.9,171.6,86.3,165.8,86.3z"/>
	<path d="M266.1,176.8c-6.5,0-21.4-2.5-21.5-23.8h0v-29.2h-11.2v-13.7h26.6v0l0.4,0l0.1,42.8h0c0,8.1,2,8.8,4,8.8
		c1.9,0,4.7-0.2,4.7-8.8h0.1l-0.9-62.8h17.5l0.7,62.2h0C287,162.5,282.8,176.8,266.1,176.8z"/>
	<path d="M251.7,85.9c-5.7,0-9.8,3.7-9.8,8.8c0,5.1,4.1,8.8,9.8,8.8c5.7,0,9.8-3.7,9.8-8.8C261.5,89.6,257.4,85.9,251.7,85.9z"/>
	<path class="st0" d="M123.4,59.5c0,23.5-19.1,42.5-42.5,42.5H60.5v35.7H31.9V73.5h49c7.7,0,14-6.3,14-14c0-7.7-6.3-14-14-14h-49V17
		h49C104.3,17,123.4,36.1,123.4,59.5z"/>
	<ellipse class="st0" cx="47.2" cy="161.4" rx="15.7" ry="14.9"/>
</g>
</svg>
